<svg xmlns="http://www.w3.org/2000/svg"  viewBox="0 0 50 50" width="50px" height="50px"><path d="M 36.15625 1 C 23.632813 1 21.902344 12.609375 17.28125 17.40625 C 12.730469 22.132813 1 25.621094 1 36.5 C 1 38.476563 1.726563 40.527344 3.4375 42.6875 C 3.476563 42.917969 3.601563 43.128906 3.78125 43.28125 C 4.160156 43.660156 4.539063 44.027344 4.9375 44.375 C 4.980469 44.417969 5.019531 44.457031 5.0625 44.5 C 5.445313 44.871094 5.855469 45.195313 6.3125 45.46875 C 16.308594 52.972656 30.660156 50.941406 40.71875 40.5 C 46.164063 34.847656 49.40625 28.328125 49.9375 21.875 C 50.46875 15.421875 48.25 9.039063 43 3.84375 C 42.855469 3.699219 42.671875 3.597656 42.46875 3.5625 C 40.269531 1.761719 38.167969 1 36.15625 1 Z M 36.15625 3 C 38.144531 3 40.097656 3.976563 42.15625 5.96875 C 46.253906 9.933594 43.472656 21.621094 32.78125 32.71875 C 25.777344 39.988281 17.3125 44.6875 11.21875 44.6875 C 9.671875 44.6875 8.394531 44.390625 7.375 43.78125 C 7.007813 43.5 6.636719 43.21875 6.28125 42.90625 C 4.074219 40.722656 3 38.625 3 36.5 C 3 29.78125 8.195313 26.332031 13.21875 23 C 15.3125 21.613281 17.273438 20.308594 18.71875 18.8125 C 20.1875 17.285156 21.332031 15.300781 22.53125 13.1875 C 25.371094 8.183594 28.304688 3 36.15625 3 Z M 39.28125 8.0625 C 35.742188 8.21875 29.542969 10.320313 27.15625 16.90625 C 26.328125 19.1875 25.617188 21.898438 23.5625 24.03125 C 21.578125 26.089844 18.167969 27.578125 16.0625 28.625 C 10.644531 31.316406 8.632813 37.0625 9.03125 40.9375 C 10.21875 36.566406 13.6875 32.832031 17.25 31.09375 C 19.59375 29.949219 23.539063 28.652344 26.0625 26.03125 C 28.75 23.242188 29.195313 19.945313 30.125 17.46875 C 31.390625 14.113281 36.171875 10.25 39.9375 8.0625 C 39.726563 8.054688 39.515625 8.050781 39.28125 8.0625 Z M 45.96875 11.25 C 47.609375 14.558594 48.234375 18.109375 47.9375 21.71875 C 47.453125 27.617188 44.46875 33.707031 39.28125 39.09375 C 31.394531 47.28125 21.011719 49.90625 12.46875 46.625 C 18.78125 46.085938 27.046875 41.570313 34.21875 34.125 C 41.628906 26.433594 45.910156 17.652344 45.96875 11.25 Z"/></svg>