<?xml version="1.0" standalone="no"?>
<!DOCTYPE svg PUBLIC "-//W3C//DTD SVG 20010904//EN"
 "http://www.w3.org/TR/2001/REC-SVG-20010904/DTD/svg10.dtd">
<svg version="1.0" xmlns="http://www.w3.org/2000/svg"
 width="100.000000pt" height="100.000000pt" viewBox="0 0 100.000000 100.000000"
 preserveAspectRatio="xMidYMid meet">

<g transform="translate(0.000000,100.000000) scale(0.100000,-0.100000)"
fill="#000000" stroke="none">
<path d="M232 826 c45 -44 63 -77 71 -129 l6 -38 -34 20 -34 20 -17 -27 c-10
-15 -20 -53 -22 -87 l-5 -59 -32 38 -32 38 -22 -53 c-32 -74 -24 -138 31 -249
41 -81 42 -86 26 -103 -24 -23 -23 -52 3 -78 20 -20 28 -21 106 -15 184 15
319 70 419 170 98 98 165 260 149 363 -6 41 -8 43 -41 43 -31 0 -34 -2 -24
-19 26 -50 -4 -182 -62 -274 -83 -130 -283 -228 -461 -227 l-42 1 35 19 c112
59 183 173 201 320 5 47 13 106 18 133 7 42 6 47 -12 47 -16 0 -18 5 -13 28 4
15 16 40 28 56 20 28 20 29 2 43 -31 22 -114 43 -199 50 l-80 6 37 -37z"/>
</g>
</svg>
