<svg xmlns="http://www.w3.org/2000/svg"  viewBox="0 0 50 50" width="50px" height="50px"><path d="M 36.15625 1 C 23.632813 1 21.902344 12.609375 17.28125 17.40625 C 12.730469 22.132813 1 25.621094 1 36.5 C 1 39.019531 2.15625 41.6875 5.0625 44.5 C 6.597656 45.984375 8.710938 46.6875 11.21875 46.6875 C 17.65625 46.6875 26.566406 42.035156 34.21875 34.09375 C 44.851563 23.054688 49.042969 9.832031 43.5625 4.53125 C 40.96875 2.019531 38.5 1 36.15625 1 Z M 39.28125 8.0625 C 39.515625 8.050781 39.726563 8.054688 39.9375 8.0625 C 36.171875 10.246094 31.390625 14.113281 30.125 17.46875 C 29.195313 19.945313 28.75 23.242188 26.0625 26.03125 C 23.539063 28.652344 19.589844 29.949219 17.25 31.09375 C 13.6875 32.832031 10.21875 36.566406 9.03125 40.9375 C 8.632813 37.0625 10.644531 31.316406 16.0625 28.625 C 18.167969 27.578125 21.578125 26.089844 23.5625 24.03125 C 25.617188 21.898438 26.332031 19.1875 27.15625 16.90625 C 29.542969 10.320313 35.742188 8.21875 39.28125 8.0625 Z M 47.9375 10.8125 C 48.066406 17.835938 43.648438 27.203125 35.65625 35.5 C 28.152344 43.285156 19.28125 48.242188 12.1875 48.65625 C 14.628906 49.535156 17.210938 50 19.9375 50 C 27.425781 50 34.8125 46.632813 40.71875 40.5 C 49.746094 31.128906 52.21875 20 47.9375 10.8125 Z"/></svg>