<?xml version="1.0" standalone="no"?>
<!DOCTYPE svg PUBLIC "-//W3C//DTD SVG 20010904//EN"
 "http://www.w3.org/TR/2001/REC-SVG-20010904/DTD/svg10.dtd">
<svg version="1.0" xmlns="http://www.w3.org/2000/svg"
 width="64.000000pt" height="64.000000pt" viewBox="0 0 64.000000 64.000000"
 preserveAspectRatio="xMidYMid meet">

<g transform="translate(0.000000,64.000000) scale(0.100000,-0.100000)"
fill="#000000" stroke="none">
<path d="M224 574 c-40 -20 -54 -51 -54 -124 0 -55 -2 -60 -25 -66 -14 -3 -38
-22 -55 -40 -28 -32 -30 -40 -30 -116 l0 -80 53 4 c51 4 53 3 69 -27 15 -30
15 -32 -3 -43 -10 -7 -19 -18 -19 -24 0 -9 3 -9 12 0 16 16 60 15 77 0 11 -11
13 -10 7 5 -3 10 -6 21 -6 23 0 2 -7 4 -15 4 -8 0 -19 9 -25 20 -10 19 -8 20
44 20 43 0 57 -4 65 -18 7 -14 5 -21 -10 -30 -10 -7 -19 -18 -19 -24 0 -9 3
-9 12 0 15 15 61 15 76 0 9 -9 12 -9 12 0 0 6 -11 19 -24 27 -31 20 -40 43
-24 62 10 12 14 11 29 -8 13 -18 27 -23 68 -23 43 -1 54 3 67 21 8 13 23 23
34 23 15 0 20 7 20 25 0 14 7 37 16 51 15 23 15 26 0 43 -9 9 -16 30 -16 44 0
20 -5 27 -19 27 -11 0 -28 11 -39 25 -16 21 -24 24 -44 16 -12 -4 -32 -5 -43
-1 -11 4 -26 3 -32 -2 -10 -8 -13 5 -13 61 0 82 -15 114 -62 130 -40 14 -47
14 -84 -5z m103 -40 c20 -20 24 -31 19 -57 -17 -87 -135 -89 -152 -2 -14 73
78 114 133 59z m-27 -180 c0 -8 -19 -13 -24 -6 -3 5 1 9 9 9 8 0 15 -2 15 -3z
m115 -59 c0 -25 -4 -31 -27 -33 -19 -2 -28 2 -33 18 -8 27 12 52 39 48 16 -2
21 -10 21 -33z m31 -43 c-36 -36 -69 -63 -73 -59 -9 10 118 138 130 130 5 -3
-20 -35 -57 -71z m-149 52 c-3 -3 -12 -4 -19 -1 -8 3 -5 6 6 6 11 1 17 -2 13
-5z m211 -56 c30 -30 -4 -77 -41 -57 -29 17 -15 69 18 69 6 0 16 -5 23 -12z
m-208 -34 c0 -8 -19 -13 -24 -6 -3 5 1 9 9 9 8 0 15 -2 15 -3z"/>
<path d="M380 289 c0 -5 5 -7 10 -4 6 3 10 8 10 11 0 2 -4 4 -10 4 -5 0 -10
-5 -10 -11z"/>
<path d="M480 219 c0 -5 5 -7 10 -4 6 3 10 8 10 11 0 2 -4 4 -10 4 -5 0 -10
-5 -10 -11z"/>
</g>
</svg>
