<?xml version="1.0" standalone="no"?>
<!DOCTYPE svg PUBLIC "-//W3C//DTD SVG 20010904//EN"
 "http://www.w3.org/TR/2001/REC-SVG-20010904/DTD/svg10.dtd">
<svg version="1.0" xmlns="http://www.w3.org/2000/svg"
 width="50.000000pt" height="50.000000pt" viewBox="0 0 50.000000 50.000000"
 preserveAspectRatio="xMidYMid meet">

<g transform="translate(0.000000,50.000000) scale(0.100000,-0.100000)"
fill="#000000" stroke="none">
<path d="M411 469 c-16 -17 -44 -34 -62 -38 -23 -5 -41 -17 -54 -39 -25 -40
-44 -40 -51 -2 -13 61 -47 15 -48 -64 -1 -54 -26 -81 -26 -28 0 36 -9 62 -21
62 -5 0 -9 -7 -9 -15 0 -8 -5 -15 -10 -15 -18 0 -23 28 -11 61 16 45 4 49 -30
11 -38 -42 -37 -65 7 -147 25 -47 33 -70 25 -78 -15 -15 -41 10 -41 39 0 31
-15 30 -36 -1 -16 -25 -16 -39 1 -121 6 -25 2 -36 -15 -52 -12 -11 -19 -25
-15 -31 16 -27 173 -3 257 40 91 46 178 153 208 256 17 55 7 89 -31 108 -35
19 -36 45 -1 60 25 11 29 25 6 25 -8 0 -28 -14 -43 -31z m-177 -217 c-25 -53
-56 -95 -98 -137 l-60 -60 -15 62 c-16 68 -10 90 15 55 20 -29 52 -28 65 2 10
20 6 34 -25 88 -20 36 -35 76 -35 89 1 21 2 21 6 4 8 -31 25 -47 45 -42 14 4
18 -1 18 -24 0 -33 23 -48 49 -32 10 7 16 26 17 54 1 24 2 49 3 56 0 7 12 1
26 -13 l26 -26 -37 -76z"/>
</g>
</svg>
